:SAMPLES-PER-SECOND 30
:FULLY-SPECIFIED
:DEGREES
195
root  -14.4212 39.7469 7.21346 -15.4586 -81.6965 12.576
RightUpLeg  -1.89381 -10.0484 -2.8247
RightLeg  13.8759 -1.35184 0.960991
RightFoot  -9.45996 -0.0414935 -1.73438
RightToes  4.6566e-010 0 -3.6325e-017
Spine  5.03646 -0.0782646 12.3253
Spine1  7.56123 1.57463 -3.42824
HEad  -6.46835 -8.67283 -4.92552
LeftShoulder1  -0.546328 5.02537 -29.7518
LeftArm  -3.3822 13.3222 -45.4946
LeftForeArm  21.5386 -24.3122 -4.06236
LeftHand  -0.188 0.280289 4.28814
RightShoulder  -0.71898 -5.64806 26.874
RightArm  17.9011 3.65647 47.4736
RightForeArm  4.76527 21.7861 4.62097
RightHand  -0.49938 4.32533 -6.23721
LeftUpLeg  -18.6227 2.47031 0.995117
LeftLeg  39.8735 -3.55218 -2.803
LeftFoot  -5.20287 0.259841 -4.26638
LeftToes  -4.59298e-010 2.08438e-011 -1.27151e-011
196
root  -14.9645 39.8115 7.32111 -18.5112 -82.3184 15.8747
RightUpLeg  -0.796281 -10.0078 -3.23756
RightLeg  12.8911 -0.648972 0.958294
RightFoot  -9.73943 -0.0394961 -1.71512
RightToes  4.6566e-010 0 -3.6325e-017
Spine  4.29824 0.303806 11.589
Spine1  7.9889 1.80718 -3.44667
HEad  -6.51478 -8.13676 -4.96607
LeftShoulder1  -0.557356 5.04028 -30.1185
LeftArm  -3.01735 12.9439 -45.0918
LeftForeArm  21.3837 -23.5577 -3.93703
LeftHand  -0.155172 0.609151 3.71434
RightShoulder  -0.708395 -5.61736 26.8499
RightArm  18.3156 4.05168 47.7634
RightForeArm  4.81993 21.885 4.62768
RightHand  -0.511709 4.43518 -6.3175
LeftUpLeg  -17.3022 2.04685 0.849543
LeftLeg  31.6758 -4.84263 -2.8686
LeftFoot  -5.04782 0.278217 -4.49285
LeftToes  -4.59298e-010 2.08438e-011 -1.27151e-011
197
root  -15.483 39.8298 7.4462 -19.1221 -82.7029 16.7817
RightUpLeg  -0.0201103 -9.7867 -3.30716
RightLeg  12.3607 -0.44915 0.79377
RightFoot  -10.2302 -0.0555716 -1.43332
RightToes  4.6566e-010 0 -3.6325e-017
Spine  3.37997 0.443417 11.0572
Spine1  8.64581 1.82749 -3.5375
HEad  -6.86311 -7.75913 -4.73576
LeftShoulder1  -0.560582 5.04558 -30.2066
LeftArm  -2.71494 12.5414 -44.8362
LeftForeArm  21.2098 -22.4595 -3.86216
LeftHand  -0.124551 0.892108 3.12266
RightShoulder  -0.657768 -5.47097 26.7434
RightArm  18.3612 4.41937 48.4047
RightForeArm  5.33282 21.2468 4.61426
RightHand  -0.449531 4.38085 -5.61557
LeftUpLeg  -15.9382 0.683733 0.967486
LeftLeg  23.9517 -6.0798 -2.64211
LeftFoot  -4.57386 0.353238 -5.51579
LeftToes  -4.59298e-010 2.08438e-011 -1.27151e-011
198
root  -16.0625 39.826 7.59373 -21.2816 -83.4269 18.25
RightUpLeg  1.94823 -9.88819 -3.72863
RightLeg  11.8539 0.471866 0.934619
RightFoot  -11.0766 -0.072037 -1.13323
RightToes  4.6566e-010 0 -3.6325e-017
Spine  4.10329 0.425318 10.3454
Spine1  8.13721 1.87857 -3.70036
HEad  -6.48713 -7.78063 -3.83026
LeftShoulder1  -0.561932 5.06443 -29.85
LeftArm  -2.72673 13.1284 -44.705
LeftForeArm  20.7443 -21.1615 -4.02097
LeftHand  -0.150342 0.941527 3.83099
RightShoulder  -0.675314 -5.49818 27.1791
RightArm  19.0789 4.16369 48.3755
RightForeArm  4.49295 20.5577 4.73286
RightHand  -0.524135 4.76537 -6.27962
LeftUpLeg  -13.519 -0.25927 1.0339
LeftLeg  18.3724 -5.99878 -1.9137
LeftFoot  -4.66728 0.344775 -5.42082
LeftToes  -4.59298e-010 2.08438e-011 -1.27151e-011
199
root  -16.6772 39.7701 7.77008 -21.3864 -83.7185 17.5966
RightUpLeg  3.79951 -10.0933 -4.18929
RightLeg  12.0373 1.083 1.11939
RightFoot  -12.3688 -0.0904987 -0.740064
RightToes  4.6566e-010 0 -3.6325e-017
Spine  3.69701 0.437575 9.44929
Spine1  8.89089 1.81375 -3.38284
HEad  -5.71787 -7.67823 -3.10302
LeftShoulder1  -0.507796 4.90787 -30.0042
LeftArm  -3.2577 12.7823 -44.3949
LeftForeArm  21.9003 -18.8304 -4.47355
LeftHand  -0.119064 1.53419 3.41644
RightShoulder  -0.659024 -5.45055 27.1573
RightArm  19.2594 3.60312 48.3937
RightForeArm  4.36947 19.6781 4.8782
RightHand  -0.5223 4.91933 -6.15719
LeftUpLeg  -11.3408 -0.500787 0.825121
LeftLeg  15.2877 -5.2685 -1.31195
LeftFoot  -4.38 0.264964 -3.97047
LeftToes  -4.59298e-010 2.08438e-011 -1.27151e-011
200
root  -17.3337 39.6995 7.96551 -22.3973 -83.9875 17.9912
RightUpLeg  5.25848 -10.1055 -4.58546
RightLeg  12.7206 1.37516 0.951953
RightFoot  -13.6248 -0.101102 -0.43523
RightToes  4.6566e-010 0 -3.6325e-017
Spine  2.40599 0.50193 8.30038
Spine1  10.6164 1.82042 -3.3161
HEad  -5.02745 -7.69637 -2.63929
LeftShoulder1  -0.467738 4.80203 -29.8737
LeftArm  -4.79314 12.568 -44.3824
LeftForeArm  23.438 -16.6536 -4.99164
LeftHand  -0.132215 0.843681 3.27131
RightShoulder  -0.71897 -5.60577 27.5495
RightArm  18.8605 3.06495 48.3152
RightForeArm  6.13555 18.7762 4.97547
RightHand  -0.41341 4.26383 -5.25323
LeftUpLeg  -9.54306 -0.0439219 0.218067
LeftLeg  14.4073 -4.71695 -1.01943
LeftFoot  -3.55248 0.10792 -1.2499
LeftToes  -4.59298e-010 2.08438e-011 -1.27151e-011
201
root  -18.0068 39.6494 8.16645 -26.0528 -84.0064 20.7206
RightUpLeg  7.05685 -9.8033 -5.20546
RightLeg  13.4443 1.37297 0.482052
RightFoot  -14.7126 -0.0953339 0.141012
RightToes  4.6566e-010 0 -3.6325e-017
Spine  2.10542 0.408873 6.20306
Spine1  11.1581 1.52592 -2.96464
HEad  -4.05666 -6.92643 -2.28701
LeftShoulder1  -0.496967 4.86072 -30.4776
LeftArm  -5.56202 13.0517 -43.441
LeftForeArm  24.0584 -15.2424 -5.3618
LeftHand  -0.0788364 2.58933 2.76824
RightShoulder  -0.780096 -5.75192 28.0644
RightArm  18.8477 2.10115 47.6726
RightForeArm  6.71621 17.5905 5.28553
RightHand  -0.436479 4.16012 -5.57911
LeftUpLeg  -7.80125 -1.41883 -0.635603
LeftLeg  15.2725 -2.79139 -0.428635
LeftFoot  -3.93197 -0.0702336 1.48078
LeftToes  -4.59298e-010 2.08438e-011 -1.27151e-011
202
root  -18.6494 39.5113 8.36596 -34.1514 -84.0316 27.8729
RightUpLeg  7.55592 -7.93038 -5.81157
RightLeg  16.5378 0.149034 -0.348026
RightFoot  -16.2682 -0.0420045 1.52018
RightToes  4.6566e-010 0 -3.6325e-017
Spine  2.17752 0.45022 3.81573
Spine1  11.5692 1.41089 -2.81982
HEad  -3.28012 -6.59287 -1.4247
LeftShoulder1  -0.532526 4.94439 -30.812
LeftArm  -6.38222 13.1274 -42.6307
LeftForeArm  24.5266 -13.4455 -5.8143
LeftHand  -0.0995694 1.8815 3.01393
RightShoulder  -0.859053 -5.92232 28.9269
RightArm  17.2787 1.26671 47.1678
RightForeArm  8.87843 15.4335 5.75007
RightHand  -0.411498 4.4745 -5.12461
LeftUpLeg  -6.47827 -2.06806 -1.70084
LeftLeg  17.0009 -1.53907 -0.149081
LeftFoot  -5.23841 -0.102587 2.46403
LeftToes  -4.59298e-010 2.08438e-011 -1.27151e-011
203
root  -19.2342 39.3717 8.53742 -48.1978 -84.2615 41.2945
RightUpLeg  5.79416 -4.82102 -6.59212
RightLeg  22.9967 -1.488 -0.866126
RightFoot  -17.1107 0.132522 4.89553
RightToes  4.6566e-010 0 -3.6325e-017
Spine  2.58363 0.78221 1.77704
Spine1  11.6994 1.72613 -3.30365
HEad  -2.60389 -6.82046 -0.563606
LeftShoulder1  -0.589684 5.08408 -31.17
LeftArm  -7.40181 12.6587 -41.8945
LeftForeArm  24.8388 -11.514 -6.14169
LeftHand  -0.0586679 3.42617 2.54669
RightShoulder  -0.875987 -5.96176 29.0451
RightArm  13.9597 0.111818 47.7288
RightForeArm  11.0933 12.596 6.10759
RightHand  -0.442764 3.97928 -5.74808
LeftUpLeg  -5.19779 -1.01818 -2.70825
LeftLeg  18.1381 -1.54964 -0.198394
LeftFoot  -7.17599 -0.0107861 1.47311
LeftToes  -4.59298e-010 2.08438e-011 -1.27151e-011
204
root  -19.7434 39.2155 8.74838 -69.9833 -84.9827 62.5266
RightUpLeg  2.22188 -3.6574 -7.91276
RightLeg  31.8691 -0.297614 -0.424842
RightFoot  -15.9911 0.259605 9.61511
RightToes  4.6566e-010 0 -3.6325e-017
Spine  3.723 1.36749 1.3802
Spine1  11.2593 2.58302 -5.38956
HEad  -2.26688 -6.69579 -0.0969998
LeftShoulder1  -0.561092 4.99826 -31.4
LeftArm  -8.13224 12.3744 -41.1862
LeftForeArm  25.5419 -9.84479 -6.27429
LeftHand  -0.0633731 2.76986 2.18638
RightShoulder  -0.809422 -5.80106 28.6176
RightArm  11.4028 -1.614 48.6194
RightForeArm  12.3838 10.4928 6.03069
RightHand  -0.42264 3.58831 -5.71434
LeftUpLeg  -4.17745 1.24094 -3.26129
LeftLeg  19.5908 -1.83906 -0.314803
LeftFoot  -9.35773 0.0381642 1.12281
LeftToes  -4.59298e-010 2.08438e-011 -1.27151e-011
205
root  -20.2318 39.1304 8.95771 -95.0191 -84.9781 87.0598
RightUpLeg  -2.61379 -2.54351 -9.18223
RightLeg  41.6639 0.597023 0.271063
RightFoot  -11.0417 -0.0715826 12.7577
RightToes  4.6566e-010 0 -3.6325e-017
Spine  5.06127 1.74338 0.765843
Spine1  10.6344 3.06081 -6.70483
HEad  -2.94038 -5.71175 -0.814904
LeftShoulder1  -0.56083 4.98885 -31.5868
LeftArm  -8.1962 12.3953 -40.7743
LeftForeArm  25.8188 -9.16774 -6.34806
LeftHand  -0.0437335 3.79026 1.83665
RightShoulder  -0.764209 -5.69091 28.3054
RightArm  10.8555 -2.17749 49.2746
RightForeArm  12.8989 8.41002 6.27518
RightHand  -0.398433 3.42347 -5.48901
LeftUpLeg  -2.77636 2.72205 -3.92832
LeftLeg  20.0179 -1.08148 0.0325438
LeftFoot  -10.8688 0.0593447 1.40444
LeftToes  -4.59298e-010 2.08438e-011 -1.27151e-011
206
root  -20.787 39.1112 9.13571 -110.957 -84.4349 102.713
RightUpLeg  -7.79328 -2.53741 -10.0498
RightLeg  50.24 0.898173 0.810863
RightFoot  -4.0572 -0.629067 9.36882
RightToes  4.6566e-010 0 -3.6325e-017
Spine  5.72417 1.8636 -0.411516
Spine1  10.5113 3.00053 -6.48543
HEad  -3.39631 -6.01276 -1.39618
LeftShoulder1  -0.678015 5.25691 -32.5333
LeftArm  -7.73779 11.6521 -39.9249
LeftForeArm  26.1595 -8.20427 -6.64464
LeftHand  -0.048578 3.1276 1.68045
RightShoulder  -0.737299 -5.61437 28.2842
RightArm  11.5254 -2.77179 49.01
RightForeArm  14.5255 8.18738 6.46704
RightHand  -0.352821 2.99101 -5.11621
LeftUpLeg  -1.25627 3.99299 -4.2957
LeftLeg  19.8031 -0.79411 0.110681
LeftFoot  -12.137 0.0824363 1.4184
LeftToes  -4.59298e-010 2.08438e-011 -1.27151e-011
207
root  -21.3466 39.0623 9.26269 -119.892 -84.0431 111.536
RightUpLeg  -11.9056 -3.2698 -10.3667
RightLeg  54.948 1.48469 1.87167
RightFoot  -1.81176 -0.619926 7.20986
RightToes  4.6566e-010 0 -3.6325e-017
Spine  6.2399 1.70803 -1.42395
Spine1  10.3379 2.63624 -6.24049
HEad  -3.75174 -4.19228 -2.22155
LeftShoulder1  -0.667217 5.21349 -32.8694
LeftArm  -7.17557 11.2144 -39.6111
LeftForeArm  26.3402 -7.77866 -6.95162
LeftHand  -0.0356491 4.32596 1.44688
RightShoulder  -0.754127 -5.63705 28.7019
RightArm  12.6262 -3.29527 48.2609
RightForeArm  15.2827 8.8165 6.69647
RightHand  -0.32175 3.15844 -4.60286
LeftUpLeg  -0.154401 5.02723 -4.29625
LeftLeg  20.0208 -0.8666 -0.00671303
LeftFoot  -13.5964 0.10764 1.31413
LeftToes  -4.59298e-010 2.08438e-011 -1.27151e-011
